# xmcd CD database file
# Copyright (C) 1997 Ti Kan
#
# Track frame offsets:
#  150
#  13132
#  26505
#  40352
#  52087
#  65587
#  80062
#  92752
#  107725
#  120782
#  136405
#  151890
#  167015
#  178990
#  193742
#  208447
#  221482
#  235305
#  248530
#  260820
#  276920
#  291660
#
# Disc length: 4051 seconds
#
# Revision: 1
# Processed by: cddbd v1.4b41PL1 Copyright (c) Steve Scherf et al.
# Submitted via: CDWizzard Release:4.31
#
DISCID=550fd116
DTITLE=Tampa Red - Complete Recorded Works In Chronological Order (Vol. 6
DTITLE=)
DYEAR=1900
DGENRE=
TTITLE0=I'm Just Crazy 'Bout You
TTITLE1=I Still Got California On My Mind
TTITLE2=Grievin' And Worryin' Blues
TTITLE3=Give It Up Buddy And Get Goin'
TTITLE4=Somebody's Been Using That Thing (Take 1)
TTITLE5=Somebody's Been Using That Thing (Take 2)
TTITLE6=Mean Mistreater Blues
TTITLE7=Happy Jack
TTITLE8=I'm So Disappointed In You
TTITLE9=Worried Devil Blues
TTITLE10=Christmas And New Year's Blues
TTITLE11=Sweet Woman
TTITLE12=I'll Get A Break Some Day
TTITLE13=Witchin' Hour Blues
TTITLE14=Stockyard Fire
TTITLE15=Worthy Of You
TTITLE16=If It Ain't That Old Gal Of Mine
TTITLE17=Mean Old Tom Cat Blues (Take 1)
TTITLE18=Mean Old Tom Cat Blues (Take 2)
TTITLE19=Don't Dog Your Woman
TTITLE20=Singing And Crying Blues
TTITLE21=Shake It Up A Little
EXTD=
EXTT0=
EXTT1=
EXTT2=
EXTT3=
EXTT4=
EXTT5=
EXTT6=
EXTT7=
EXTT8=
EXTT9=
EXTT10=
EXTT11=
EXTT12=
EXTT13=
EXTT14=
EXTT15=
EXTT16=
EXTT17=
EXTT18=
EXTT19=
EXTT20=
EXTT21=
PLAYORDER=
